Coordinates
version=1
nRows=16
nColumns=22
inDegrees=yes

Units are S.I. units (second, meters, Newtons, ...)
If the header above contains a line with 'inDegrees', this indicates whether rotational values are in degrees (yes) or radians (no).

endheader
time	pelvis_tilt	pelvis_list	pelvis_rotation	pelvis_tx	pelvis_ty	pelvis_tz	hip_flexion_r	hip_adduction_r	hip_rotation_r	knee_angle_r	ankle_angle_r	subtalar_angle_r	hip_flexion_l	hip_adduction_l	hip_rotation_l	knee_angle_l	ankle_angle_l	subtalar_angle_l	lumbar_extension	lumbar_bending	lumbar_rotation
      0.01000000	     -5.78206543	      0.77692717	    178.46451598	      0.34341386	      0.93466698	      0.91231020	     -8.65002364	     -5.04750859	      5.84104690	     -4.62895625	      5.44297099	      4.31376129	     -9.39524232	     -4.82985506	    -13.48911283	     -3.98534437	      6.36738929	      8.95039830	     -7.39038414	     -2.31337397	     -0.71142589
      0.02000000	     -4.80242580	      1.27741724	    177.92602963	      0.34612738	      0.93393716	      0.91106407	     -7.12010119	     -4.47955219	      4.73346595	     -4.89916858	      4.98748705	      4.38935387	     -7.96023030	     -5.45160977	    -14.06418067	     -4.61976367	      6.61346981	      9.05099852	     -6.62289513	     -1.80472449	     -0.13243041
      0.03000000	     -3.81528719	      1.71056054	    177.40030123	      0.34876892	      0.93314487	      0.90985947	     -5.56537934	     -3.96250379	      3.63780908	     -5.25507872	      4.62951753	      4.44665056	     -6.52042507	     -6.03184103	    -14.58048005	     -5.26405230	      6.78746558	      9.19153744	     -5.84131842	     -1.35830964	      0.43586514
      0.04000000	     -2.98126500	      2.08753620	    176.97121085	      0.35087653	      0.93244680	      0.90887100	     -4.29789042	     -3.50091894	      2.72495141	     -5.50854735	      4.27661307	      4.47210017	     -5.32581210	     -6.55506948	    -15.01614825	     -5.79204417	      6.98929754	      9.27865372	     -5.16734646	     -0.95006340	      0.87540777
      0.05000000	     -2.34999013	      2.33079957	    176.65104450	      0.35242292	      0.93189334	      0.90814291	     -3.32493164	     -3.18984896	      2.04068778	     -5.74998457	      4.06438527	      4.47503059	     -4.42560870	     -6.91648492	    -15.31450864	     -6.18964727	      7.10023335	      9.35261773	     -4.65226995	     -0.68396068	      1.21076064
      0.06000000	     -1.94680495	      2.50127899	    176.44977127	      0.35339781	      0.93153874	      0.90766349	     -2.71107055	     -2.96997019	      1.60918115	     -5.89951649	      3.91221318	      4.47074206	     -3.84145646	     -7.17441590	    -15.50243197	     -6.47017414	      7.17486988	      9.39029884	     -4.32627300	     -0.49577660	      1.42350393
      0.07000000	     -1.71423437	      2.57837642	    176.33165909	      0.35388217	      0.93132438	      0.90739751	     -2.35367051	     -2.86656378	      1.36009251	     -6.00397002	      3.85330538	      4.46280624	     -3.52015955	     -7.29692708	    -15.60805107	     -6.60827729	      7.20910569	      9.41511360	     -4.12842481	     -0.41089684	      1.54755026
      0.08000000	     -1.61318671	      2.60439412	    176.28159181	      0.35402720	      0.93122356	      0.90729951	     -2.20146635	     -2.83114334	      1.26437923	     -6.05254121	      3.83859844	      4.45559941	     -3.38772877	     -7.33986194	    -15.65261018	     -6.66080199	      7.22989224	      9.42439361	     -4.03759444	     -0.38031413	      1.60062039
      0.09000000	     -1.61139995	      2.60445188	    176.28213968	      0.35393725	      0.93121988	      0.90731634	     -2.20422066	     -2.83266838	      1.26509108	     -6.05578742	      3.83900308	      4.45543332	     -3.39110499	     -7.33852392	    -15.65263614	     -6.66183801	      7.23096095	      9.42445687	     -4.03182505	     -0.38074677	      1.60058435
      0.10000000	     -1.62445780	      2.56835465	    176.29843855	      0.35374057	      0.93120382	      0.90739823	     -2.23255429	     -2.87688210	      1.33378480	     -6.05861234	      3.88622728	      4.45207599	     -3.42377712	     -7.28997323	    -15.63093682	     -6.63776674	      7.24531972	      9.42183909	     -4.02707174	     -0.42027790	      1.58374782
      0.11000000	     -1.69212845	      2.51918692	    176.32004284	      0.35346957	      0.93125759	      0.90751785	     -2.32541727	     -2.94072889	      1.41644821	     -6.06154332	      3.93908854	      4.44676826	     -3.53855764	     -7.21498810	    -15.60948068	     -6.57109808	      7.21144145	      9.39715720	     -4.07829311	     -0.47581034	      1.55414943
      0.12000000	     -1.76010683	      2.47691181	    176.35150673	      0.35320262	      0.93130775	      0.90766513	     -2.42823020	     -2.99828550	      1.50939663	     -6.04808734	      3.97898621	      4.44643372	     -3.64436146	     -7.14954964	    -15.57351013	     -6.52082783	      7.19804564	      9.37339667	     -4.13388104	     -0.52254561	      1.51713108
      0.13000000	     -1.79052579	      2.44260143	    176.38150493	      0.35297203	      0.93130914	      0.90779594	     -2.48667484	     -3.04303031	      1.59786054	     -6.03759996	      4.01853054	      4.44784544	     -3.69211915	     -7.10145040	    -15.53778377	     -6.50421435	      7.20624321	      9.36529693	     -4.15090272	     -0.56168981	      1.48218440
      0.14000000	     -1.83290393	      2.40856777	    176.39686262	      0.35276247	      0.93133976	      0.90790500	     -2.54554522	     -3.08880935	      1.65978275	     -6.04300480	      4.05592455	      4.45051195	     -3.76418075	     -7.04944274	    -15.51369379	     -6.46773988	      7.19229326	      9.34784470	     -4.18699821	     -0.60325732	      1.45576527
      0.15000000	     -1.86840477	      2.39066714	    176.40220121	      0.35258355	      0.93137425	      0.90798119	     -2.58898552	     -3.11534992	      1.68844057	     -6.05758520	      4.07567889	      4.45523495	     -3.82746380	     -7.01774113	    -15.50557456	     -6.43694865	      7.17597427	      9.32590102	     -4.22103407	     -0.62988422	      1.43733154
      0.16000000	     -1.86644364	      2.39319114	    176.40465991	      0.35244082	      0.93136785	      0.90802983	     -2.59234340	     -3.11600273	      1.69096159	     -6.06424130	      4.07492034	      4.45535884	     -3.83458620	     -7.01812544	    -15.50600646	     -6.43959345	      7.17602709	      9.32544869	     -4.21578450	     -0.63376083	      1.43428238
